<svg id="Layer_1" data-name="Layer 1" xmlns="http://www.w3.org/2000/svg" viewBox="0 0 148.24 66.33"><defs><style>.cls-1{fill:#d13029;}.cls-2{fill:#fff;}</style></defs><title>repost</title><path class="cls-1" d="M145,66.33H3.21A3.21,3.21,0,0,1,0,63.12V3.21A3.21,3.21,0,0,1,3.21,0H145a3.21,3.21,0,0,1,3.21,3.21v59.9A3.21,3.21,0,0,1,145,66.33"/><path class="cls-2" d="M83.3,22.68A16,16,0,0,0,71.5,17.56a16.17,16.17,0,0,0,0,32.33,16,16,0,0,0,11.76-5.08h0L95.92,32.16h-21v4.47h9.43l-5,5a11.09,11.09,0,1,1-7.79-19,11,11,0,0,1,7,2.5h7.18l-2.45-2.45h0Z"/><path class="cls-2" d="M99,56.3V35.38l-13,13h0A20.61,20.61,0,1,1,86,19h0L92,25.12h7l-8.86-9a25.74,25.74,0,0,0-7.44-5.46,25.62,25.62,0,1,0,6.92,41.19h0l5-5,0,9.41H99Z"/></svg>